<?xml version="1.0" encoding="utf-8"?>
<!-- Generator: Adobe Illustrator 21.0.1, SVG Export Plug-In . SVG Version: 6.00 Build 0)  -->
<svg version="1.1" id="Layer_1" xmlns="http://www.w3.org/2000/svg" xmlns:xlink="http://www.w3.org/1999/xlink" x="0px" y="0px"
	 viewBox="0 0 24 24" style="enable-background:new 0 0 24 24;" xml:space="preserve">
<style type="text/css">
	.st0{fill:none;}
	.st1{fill:#FF5649;}
</style>
<g>
	<polygon class="st0" points="14.9,7 12,9.9 9.1,7 7,9.1 9.9,12 7,14.9 9.1,17 12,14.1 14.9,17 17,14.9 14.1,12 17,9.1 	"/>
	<path class="st1" d="M12,1C5.9,1,1,5.9,1,12s4.9,11,11,11s11-4.9,11-11S18.1,1,12,1z M17,14.9L14.9,17L12,14.1L9.1,17L7,14.9
		L9.9,12L7,9.1L9.1,7L12,9.9L14.9,7L17,9.1L14.1,12L17,14.9z"/>
</g>
</svg>
