<?xml version="1.0" encoding="utf-8"?>
<!-- Generator: Adobe Illustrator 21.0.1, SVG Export Plug-In . SVG Version: 6.00 Build 0)  -->
<svg version="1.1" id="Layer_1" xmlns="http://www.w3.org/2000/svg" xmlns:xlink="http://www.w3.org/1999/xlink" x="0px" y="0px"
	 viewBox="0 0 24 24" style="enable-background:new 0 0 24 24;" xml:space="preserve">
<style type="text/css">
	.st0{fill:none;}
	.st1{fill:#FAA732;}
</style>
<g>
	<path class="st0" d="M12,15c-0.6,0-1.1,0.1-1.5,0.5C10.2,15.9,10,16.5,10,17c0,0.5,0.2,1.1,0.5,1.5c0.4,0.4,0.9,0.6,1.5,0.5
		c0.5,0,1.1-0.2,1.5-0.5c0.4-0.4,0.6-0.9,0.5-1.5c0-0.5-0.1-1.1-0.5-1.5C13.1,15.2,12.6,15,12,15z"/>
	<polygon class="st0" points="11,14 13,14 14,6 10,6 	"/>
	<path class="st1" d="M12,1C5.9,1,1,5.9,1,12s4.9,11,11,11s11-4.9,11-11S18.1,1,12,1z M13.5,18.5C13.1,18.8,12.6,19,12,19
		c-0.5,0-1.1-0.2-1.5-0.5C10.2,18.1,10,17.5,10,17c0-0.5,0.2-1.1,0.5-1.5c0.4-0.4,0.9-0.6,1.5-0.5c0.5,0,1.1,0.2,1.5,0.5
		c0.4,0.4,0.5,0.9,0.5,1.5C14,17.5,13.8,18.1,13.5,18.5z M13,14h-2l-1-8h4L13,14z"/>
</g>
</svg>
